<svg xmlns="http://www.w3.org/2000/svg" viewBox="0 0 512 512">
  <rect width="512" height="512" rx="96" fill="#1a2744"/>
  <g transform="translate(256,220) scale(3.2)">
    <path d="M0-50C0-50-30-20-30 0V10H-38V0C-38-5-42-10-46-10C-50-10-54-5-54 0V10H-58V40H58V10H54V0C54-5 50-10 46-10C42-10 38-5 38 0V10H30V0C30-20 0-50 0-50Z" fill="rgba(255,255,255,0.9)"/>
    <rect x="-58" y="40" width="116" height="8" rx="2" fill="rgba(255,255,255,0.7)"/>
    <rect x="-10" y="10" width="20" height="30" rx="10" fill="rgba(26,39,68,0.4)"/>
    <circle cx="-46" cy="-14" r="4" fill="rgba(212,175,55,0.7)"/>
    <circle cx="46" cy="-14" r="4" fill="rgba(212,175,55,0.7)"/>
    <circle cx="0" cy="-52" r="3.5" fill="rgba(212,175,55,0.8)"/>
  </g>
  <text x="256" y="400" text-anchor="middle" font-family="system-ui,sans-serif" font-size="72" font-weight="700" fill="rgba(212,175,55,0.9)">MUAI</text>
</svg>
